<svg width="300" height="300" viewBox="0 0 300 300" fill="none" xmlns="http://www.w3.org/2000/svg">
  <!-- Open Book -->
  <path d="M50 180 C50 180 90 190 150 180 C210 190 250 180 250 180 V240 C250 240 210 250 150 240 C90 250 50 240 50 240 Z" fill="#E3F2FD" stroke="#90CAF9" stroke-width="3" stroke-linejoin="round"/>
  <path d="M150 180 V240" stroke="#90CAF9" stroke-width="3" stroke-linecap="round"/>
  
  <!-- Pages line -->
  <path d="M55 235 C55 235 90 242 145 235" stroke="#BBDEFB" stroke-width="2"/>
  <path d="M245 235 C245 235 210 242 155 235" stroke="#BBDEFB" stroke-width="2"/>

  <!-- Elements Coming out of Book -->
  <!-- Graduation Cap -->
  <path d="M60 120 L110 145 L60 170 L10 145 Z" fill="#5C6BC0" stroke="#3949AB" stroke-width="2"/>
  <path d="M110 145 V170 C110 170 95 180 60 180 C25 180 10 170 10 170 V145" fill="#5C6BC0" fill-opacity="0.5"/>
  
  <!-- Coin -->
  <circle cx="230" cy="110" r="30" fill="#FFD54F" stroke="#FFB300" stroke-width="3"/>
  <text x="230" y="120" font-family="Arial" font-weight="bold" font-size="30" fill="#F57F17" text-anchor="middle">$</text>
  
  <!-- Connecting Arrow/Path -->
  <path d="M100 130 Q 150 80 200 110" stroke="#4CAF50" stroke-width="4" stroke-dasharray="8 8" stroke-linecap="round"/>
  <path d="M190 105 L200 110 L195 120" stroke="#4CAF50" stroke-width="4" stroke-linecap="round" stroke-linejoin="round"/>
</svg>
