<svg width="300" height="300" viewBox="0 0 300 300" fill="none" xmlns="http://www.w3.org/2000/svg">
  <rect x="60" y="220" width="40" height="30" fill="#E1BEE7" stroke="#7B1FA2"/>
  <rect x="60" y="190" width="40" height="30" fill="#E1BEE7" stroke="#7B1FA2"/>
  
  <rect x="110" y="220" width="40" height="30" fill="#CE93D8" stroke="#7B1FA2"/>
  <rect x="110" y="190" width="40" height="30" fill="#CE93D8" stroke="#7B1FA2"/>
  <rect x="110" y="160" width="40" height="30" fill="#CE93D8" stroke="#7B1FA2"/>
  
  <rect x="160" y="220" width="40" height="30" fill="#BA68C8" stroke="#7B1FA2"/>
  <rect x="160" y="190" width="40" height="30" fill="#BA68C8" stroke="#7B1FA2"/>
  <rect x="160" y="160" width="40" height="30" fill="#BA68C8" stroke="#7B1FA2"/>
  <rect x="160" y="130" width="40" height="30" fill="#BA68C8" stroke="#7B1FA2"/>
  
  <rect x="210" y="220" width="40" height="30" fill="#9C27B0" stroke="#7B1FA2"/>
  <rect x="210" y="190" width="40" height="30" fill="#9C27B0" stroke="#7B1FA2"/>
  <rect x="210" y="160" width="40" height="30" fill="#9C27B0" stroke="#7B1FA2"/>
  <rect x="210" y="130" width="40" height="30" fill="#9C27B0" stroke="#7B1FA2"/>
  <rect x="210" y="100" width="40" height="30" fill="#9C27B0" stroke="#7B1FA2"/>

  <path d="M50 250 L260 250" stroke="#757575" stroke-width="2"/>
</svg>
