<svg width="400" height="300" viewBox="0 0 400 300" fill="none" xmlns="http://www.w3.org/2000/svg">
  <!-- Balloon -->
  <path d="M200 60C166.863 60 140 86.863 140 120C140 153.137 166.863 180 200 180C233.137 180 260 153.137 260 120C260 86.863 233.137 60 200 60Z" fill="#F44336" fill-opacity="0.1" stroke="#F44336" stroke-width="3"/>
  
  <!-- String -->
  <path d="M200 180C200 180 205 200 200 220" stroke="#F44336" stroke-width="2"/>
  
  <!-- Price Tag tied to balloon -->
  <rect x="210" y="160" width="60" height="30" rx="4" fill="#FFFFFF" stroke="#4CAF50" stroke-width="2"/>
  <text x="220" y="180" font-family="Arial" font-size="14" fill="#4CAF50" font-weight="bold">$110</text>
  
  <!-- Rising arrows indicating expansion -->
  <path d="M120 120L100 120M120 120L110 110M120 120L110 130" stroke="#F44336" stroke-width="2"/>
  <path d="M280 120L300 120M280 120L290 110M280 120L290 130" stroke="#F44336" stroke-width="2"/>
  <path d="M200 40L200 20M200 40L190 30M200 40L210 30" stroke="#F44336" stroke-width="2"/>
</svg>
