<svg width="400" height="300" viewBox="0 0 400 300" fill="none" xmlns="http://www.w3.org/2000/svg">
  <!-- Shield -->
  <path d="M200 60C200 60 140 80 140 140C140 200 200 240 200 240C200 240 260 200 260 140C260 80 200 60 200 60Z" fill="#4CAF50" fill-opacity="0.1" stroke="#4CAF50" stroke-width="3"/>
  
  <!-- Investment Icon on Shield -->
  <path d="M180 160L200 130L220 160" stroke="#4CAF50" stroke-width="2"/>
  <path d="M170 170L230 170" stroke="#4CAF50" stroke-width="2"/>
  
  <!-- Arrows bouncing off (Inflation attacks) -->
  <path d="M100 100L140 120M135 115L140 120L130 125" stroke="#F44336" stroke-width="2"/>
  <path d="M100 180L140 160M135 165L140 160L130 155" stroke="#F44336" stroke-width="2"/>
  <path d="M300 100L260 120M265 115L260 120L270 125" stroke="#F44336" stroke-width="2"/>
  
  <!-- Label -->
  <text x="170" y="270" font-family="Arial" font-size="14" fill="#4CAF50" font-weight="bold">Real Return</text>
</svg>
